<svg width="643" height="532" viewBox="0 0 643 532" fill="#E5E5E5" xmlns="http://www.w3.org/2000/svg">
<path d="M305.271 0C366.813 0 428.171 0.0381299 489.654 1.66956C503.443 2.03547 512.702 4.97942 513.608 20.3363C515.169 46.867 514.093 73.6306 514.166 100.199C514.176 105.924 514.508 112.757 513.254 118.162C511.19 127.064 502.279 132.681 493.409 133.071C470.045 134.097 446.216 133.21 422.799 133.444C413.098 133.541 396.781 133.444 387.14 133.444C387.14 137.993 387.221 154.534 387.14 159.629C385.81 266.847 386.071 374.101 385.703 481.327C385.625 490.13 386.208 501.169 384.242 509.744C382.934 515.449 377.288 521.439 372.157 524.264C365.35 528.05 357.086 527.707 349.542 527.943C292.249 529.718 233.228 534.119 176.347 528.332C164.472 527.125 132.544 532.578 130.251 514.326C127.361 491.334 129.236 467.383 128.959 444.273C128.839 434.262 127.879 424.819 128.842 414.984C131.14 391.516 154.953 395.58 171.86 395.869C186.394 396.132 200.931 396.226 215.467 396.148C225.704 396.12 246.46 396.148 255.528 395.869C255.528 388.069 255.527 370.632 255.528 362.431L256.695 72.2829C256.693 57.1078 256.708 41.7888 257.41 26.6287C257.646 21.5564 257.849 14.5942 260.407 10.1914C266.948 -6.89611e-06 283.821 0.602599 305.271 0Z" fill="#E5E5E5"/>
<path d="M555.57 528.642C543.537 528.642 533.077 530.14 522.954 524.759C513.44 519.592 513.292 509.293 512.866 499.767C512.192 484.795 512.857 469.826 512.851 454.81C512.48 354.427 511.727 254.005 512.628 153.623C512.434 143.975 517.248 134.852 527.147 132.391C533.96 130.697 543.071 131.572 550.251 131.741C567.625 132.193 585.012 132.548 602.393 132.548C611.175 132.553 624.709 131.714 632.682 135.55C638.999 138.59 640.044 146.104 640.583 152.423C641.483 162.948 641.486 173.525 641.486 184.154C641.466 280.054 641.369 376.114 641.76 471.829C641.737 486.559 647.649 525.019 627.598 527.114C603.902 529.589 579.307 528.642 555.57 528.642Z" fill="#E5E5E5"/>
<path d="M43.3677 397.277C32.9128 394.129 20.8746 398.775 10.7509 393.394C1.23781 388.227 1.08928 377.928 0.6638 368.402C-0.0105548 353.43 0.654375 338.461 0.648102 323.445C0.27774 223.062 -0.475446 122.64 0.425421 22.258C0.230955 12.6098 5.04555 3.48667 14.9445 1.02602C21.757 -0.667526 30.8686 0.206842 38.0482 0.375569C55.4221 0.828 72.8094 1.18273 90.1899 1.18345C98.9722 1.18784 112.506 0.348596 120.479 4.18478C126.796 7.22469 127.841 14.7387 128.38 21.0584C129.281 31.5835 129.284 42.1603 129.284 52.7885C129.264 148.689 128.874 244.882 129.265 340.596C129.242 355.326 135.446 393.654 115.395 395.749C91.6992 398.224 67.104 397.277 43.3677 397.277Z" fill="#E5E5E5"/>
</svg>
