<svg width="1000" height="1000" viewBox="0 0 1000 1000" fill="none" xmlns="http://www.w3.org/2000/svg">
<path d="M189.443 179.46C195.012 179.075 205.29 178.785 211.14 178.994C237.113 179.921 271.765 177.983 295.809 187.635C304.483 191.117 316.246 201.75 322.63 208.237C336.733 222.567 353.404 241.794 358.635 261.337C362.11 274.32 360.297 292.072 360.205 305.66L360.154 353.414L360.183 577.91C367.212 577.708 373.952 577.839 380.975 577.957L381.641 263.561C381.792 249.256 381.73 233.686 383.456 219.541C384.626 209.962 388.312 201.616 395.147 194.801C407.933 182.052 421.251 181.475 438.153 180.734C446.63 180.332 455.115 180.127 463.601 180.117L601.335 180.105L634.982 180.147C642.639 180.132 661.785 179.499 669.021 181.744C699.388 191.17 739.541 235.169 746.593 265.886C748.414 273.81 747.53 304.5 747.542 313.35C781.652 312.926 812.974 310.626 840.073 336.014C853.815 348.892 867.665 368.247 872.682 386.752C873.88 391.18 874.634 401.439 874.77 406.17C877.19 488.22 877.03 570.466 876.976 652.535C876.959 679.035 876.698 705.541 876.199 732.035C875.998 748.707 876.152 766.293 874.349 782.728C872.309 794.329 865.755 804.685 855.974 810.936C840.987 820.515 825.637 820.283 808.644 820.71C793.271 820.989 777.892 821.084 762.512 820.995C715.236 820.265 696.102 817.276 661.684 781.892C653.493 773.463 646.05 764.11 643.571 752.331C638.167 726.638 638.316 697.67 638.321 671.532L638.351 606.136C638.339 545.668 637.408 482.584 638.571 422.308C631.975 422.279 625.38 422.305 618.79 422.384L618.838 426.311C619.615 497.591 618.648 570.413 618.595 641.835L618.476 706.312C618.571 729.929 618.832 754.075 616.525 777.568C615.167 786.263 614.419 796.885 607.759 803.344C588.631 821.879 568.815 820.046 544.059 820.408C530.649 820.651 517.244 820.811 503.834 820.888L398.941 820.912L364.363 820.58C319.714 820.129 313.463 814.216 280.731 783.416C248.966 753.523 251.436 728.868 251.245 688.631C210.322 688.898 194.146 689.841 162.284 660.085C147.335 646.123 130.391 629.878 126.037 608.698C124.862 602.986 124.524 589.541 124.317 583.432C123.084 542.667 122.477 501.879 122.496 461.094C122.177 416.119 122.179 371.143 122.498 326.168C122.627 302.154 122.982 278.141 123.564 254.134C124.107 233.567 121.731 211.105 137.135 195.509C152.008 180.45 169.71 180.007 189.443 179.46Z" fill="black"/>
<path d="M192.213 206.084C193.018 206.026 193.823 205.983 194.629 205.956C213.999 205.267 267.327 204.8 283.58 211.45C289.716 213.96 295.249 219.008 300.017 223.484C312.131 234.859 328.249 251.945 332.623 268.016C335.803 279.696 333.661 293.522 333.488 305.565C333.315 317.593 333.454 329.641 333.456 341.671L333.476 506.357C333.474 533.717 332.547 561.356 333.501 588.681C333.665 593.372 333.991 598.141 337.773 601.427C340.273 603.597 343.427 604.125 346.62 604.54C353.84 605.472 361.437 604.623 368.71 604.606C376.906 604.588 385.222 605.276 393.398 604.635C398.999 604.19 404.133 603.135 406.337 597.275C409.395 589.137 407.694 537.75 407.696 525.354L408.347 265.682C408.471 252.381 408.436 239.236 409.56 225.972C410.726 212.202 418.004 208.613 430.756 207.886C454.76 206.519 478.697 206.854 502.725 206.847L596.003 206.849L635.077 206.896C641.898 206.883 656.014 206.497 662.319 207.692C671.043 210.833 679.525 216.672 686.245 223.368C698.961 236.033 714.269 252.181 720.022 269.416C721.149 272.793 720.746 283.391 720.775 287.188C720.87 299.064 720.491 310.897 720.734 322.768C721.291 340.508 730.74 340.047 744.577 340.104C771.296 340.212 801.551 335.584 822.404 356.154C832.232 365.846 841.58 378.057 846.164 391.307C847.825 396.387 848.098 407.707 848.252 413.136C850.073 493.433 850.719 573.752 850.198 654.071C850.209 680.891 849.954 707.717 849.438 734.532C849.237 748.055 849.308 762.521 848.276 775.966C846.763 795.729 820.287 793.718 805.999 793.771C804.712 793.843 803.431 793.908 802.15 793.961C777.589 794.922 736.878 795.616 713.184 788.416C707.069 786.559 691.541 773.683 686.375 768.754C681.013 763.648 671.536 754.472 669.786 746.94C666.281 731.851 665.723 714.657 665.391 699.289C665.011 680.595 664.899 661.9 665.041 643.205L665.053 485.135C665.053 460.435 665.148 435.657 665.183 410.956C665.201 395.47 655.077 395.562 642.568 395.54C628.417 395.515 614.081 395.515 599.841 396.241C596.246 398.62 595.185 399.884 592.824 403.467C591.78 416.296 592.124 428.555 592.142 441.399L592.172 495.752L591.691 694.082C591.478 716.839 593.216 763.725 588.085 784.946C574.384 796.352 557.665 793.463 540.714 793.677C517.464 794.115 494.208 794.305 470.954 794.24C439.314 794.365 407.672 794.27 376.032 793.955C364.907 793.777 345.619 795.325 335.564 791.713C321.687 786.719 309.447 774.217 299.186 763.95C293.095 757.853 286.64 751.068 283.095 743.09C275.718 726.489 278.002 682.587 278.011 662.582C255.165 659.67 226.805 665.642 205.138 658.08C200.471 656.455 189.759 648.863 186.215 645.566C174.385 634.569 152.846 617.156 151.932 600.222C150.145 567.08 149.699 533.51 149.498 500.432C149.107 457.3 148.94 414.166 148.998 371.031C149.079 337.363 149.383 303.695 149.908 270.031C150.24 255.145 150.215 238.093 151.814 223.373C153.763 205.432 178.742 206.527 192.213 206.084Z" fill="white"/>
<path d="M490.91 221.525C527.742 221.23 564.574 221.387 601.406 221.995C616.981 222.27 632.592 222.519 648.155 223.253C653.096 223.486 659.531 223.769 663.511 226.953C664.982 230.308 665.278 234.214 665.456 237.845C666.322 255.533 665.468 273.486 665.521 291.201C665.557 302.689 666.957 315.291 665.515 326.635C665.166 329.377 664.507 332.286 662.502 334.313C659.94 336.904 656.008 337.953 652.509 338.445C643.825 339.666 634.11 338.818 625.309 338.783C605.742 338.705 586.146 338.363 566.585 338.537C559.432 338.601 543.976 338.662 540.067 345.904C536.004 353.433 537.363 415.096 537.345 428.044L536.277 687.297C536.248 697.884 536.253 708.115 535.72 718.702C534.747 737.871 517.808 736.287 503.122 736.703C491.379 737.094 479.631 737.266 467.882 737.219C431.788 737.717 395.689 737.782 359.593 737.403C341.446 737.201 323.144 736.851 305.055 735.422C296.742 734.739 295.31 730.967 294.876 723.381C293.304 695.998 294.902 668.252 294.132 640.856C293.568 620.821 299.246 619.932 317.846 620.204C347.351 620.631 376.72 621.889 406.132 619.599C410.241 619.279 418.519 617.666 420.348 612.381C422.757 593.081 422.026 563.029 422.156 544.376L423.171 275.83C423.249 262.068 422.86 247.605 424.244 233.913C424.502 231.351 425.218 227.892 427.151 226.002C432.531 220.739 481.542 221.66 490.91 221.525Z" fill="black"/>
<path d="M209.068 221.531C220.734 221.333 267.758 219.607 273.998 226.091C275.819 227.983 276.73 230.844 277.058 233.388C277.746 238.724 277.568 244.394 277.696 249.773C277.948 259.767 278.119 269.763 278.208 279.76L278.278 563.497C278.243 609.552 281.225 605.578 233.329 604.641C222.072 604.434 175.914 606.77 169.206 601.747C167.367 597.72 167.025 588.515 166.794 583.936C165.541 555.384 164.878 526.814 164.805 498.238C164.228 445.122 164.264 391.999 164.914 338.883C165.09 315.318 165.454 291.755 166.005 268.195C167.294 222.256 162.353 222.862 209.068 221.531Z" fill="black"/>
<path d="M689.981 354.851C693.125 354.511 706.57 354.342 709.281 354.695C720.07 356.101 786.575 353.198 791.462 358.618C796.029 371.757 794.345 421.425 794.351 437.031L794.339 650.886C794.333 675.595 794.564 700.357 793.698 725.048C793.615 727.367 793.443 732.183 792.239 734.057C790.91 736.127 787.316 736.258 785.033 736.519C766.415 737.106 703.451 739.425 689.436 735.273C686.814 734.496 684.946 733.535 683.665 731.015C681.701 727.171 681.832 722.355 681.713 718.132C681.002 692.107 681.529 665.951 681.529 639.907L681.565 497.816C681.565 480.141 679.97 368.623 682.591 361.392C683.902 357.775 686.678 356.408 689.981 354.851Z" fill="black"/>
</svg>
