<svg width="768" height="1178" viewBox="0 0 768 1178" fill="none" xmlns="http://www.w3.org/2000/svg">
  <rect width="768" height="1178" fill="#F3F2F1"/>

  <g transform="translate(146 76)">
    <rect x="0" y="0" width="385" height="126" rx="63" fill="#EDF4FF" stroke="#1E6EF0" stroke-width="5"/>
    <rect x="39" y="29" width="78" height="52" rx="16" fill="#CFE1FF"/>
    <path d="M53 95C69 89 87 89 103 95" stroke="#1E6EF0" stroke-width="5" stroke-linecap="round"/>
    <text x="145" y="84" fill="#1560DF" font-family="Arial, Helvetica, sans-serif" font-size="66" font-weight="500">Digital</text>
  </g>

  <g transform="translate(146 310)">
    <rect x="0" y="0" width="465" height="126" rx="63" fill="#E8F8F2" stroke="#10B877" stroke-width="5"/>
    <rect x="39" y="29" width="78" height="52" rx="16" fill="#BFEEDE"/>
    <rect x="57" y="18" width="33" height="22" rx="6" fill="#22B37F"/>
    <path d="M64 58C71 64 88 66 96 58" stroke="#22B37F" stroke-width="6" stroke-linecap="round"/>
    <path d="M78 72C64 66 52 76 61 91C68 102 91 101 98 89C105 77 94 66 80 72L82 49" stroke="#0B9E71" stroke-width="6" stroke-linecap="round" stroke-linejoin="round"/>
    <text x="145" y="84" fill="#07936A" font-family="Arial, Helvetica, sans-serif" font-size="66" font-weight="500">Finance</text>
  </g>

  <g transform="translate(146 544)">
    <rect x="0" y="0" width="404" height="126" rx="63" fill="#F3EFFF" stroke="#8B5CF6" stroke-width="5"/>
    <rect x="39" y="29" width="78" height="52" rx="16" fill="#E2D4FF"/>
    <path d="M65 87C68 63 81 44 101 34C98 52 92 65 81 75C75 81 70 85 65 87Z" fill="#8E60F5"/>
    <path d="M67 83C77 66 88 61 102 57" stroke="#8E60F5" stroke-width="5" stroke-linecap="round"/>
    <text x="145" y="84" fill="#8456EF" font-family="Arial, Helvetica, sans-serif" font-size="66" font-weight="500">Simple</text>
  </g>

  <g transform="translate(146 778)">
    <rect x="0" y="0" width="335" height="126" rx="63" fill="#FFF3E7" stroke="#FF7308" stroke-width="5"/>
    <circle cx="78" cy="63" r="39" fill="#FFD6AF"/>
    <path d="M84 28L59 69H80L72 98L97 57H76L84 28Z" fill="#FF7A0F"/>
    <text x="145" y="84" fill="#D56A0F" font-family="Arial, Helvetica, sans-serif" font-size="66" font-weight="500">Fast</text>
  </g>

  <g transform="translate(146 1012)">
    <rect x="0" y="0" width="402" height="126" rx="63" fill="#E8EEFC" stroke="#2848A5" stroke-width="5"/>
    <rect x="39" y="20" width="78" height="86" rx="39" fill="#CAD4F5"/>
    <path d="M78 32L102 41V59C102 74 91 87 78 93C65 87 54 74 54 59V41L78 32Z" fill="#A8B7EE"/>
    <path d="M67 63L75 71L91 52" stroke="#2848A5" stroke-width="6" stroke-linecap="round" stroke-linejoin="round"/>
    <text x="145" y="84" fill="#193E9D" font-family="Arial, Helvetica, sans-serif" font-size="66" font-weight="500">Secure</text>
  </g>

  <g transform="translate(146 1006)">
    <rect x="0" y="0" width="371" height="126" rx="63" fill="#E6F8FC" stroke="#11B9D8" stroke-width="5"/>
    <rect x="39" y="29" width="78" height="52" rx="16" fill="#C9EEF7"/>
    <path d="M53 52C60 47 68 47 75 52C82 57 90 57 97 52" stroke="#8DDDEF" stroke-width="6" stroke-linecap="round"/>
    <path d="M53 70C60 65 68 65 75 70C82 75 90 75 97 70" stroke="#8DDDEF" stroke-width="6" stroke-linecap="round"/>
    <path d="M53 88C60 83 68 83 75 88C82 93 90 93 97 88" stroke="#8DDDEF" stroke-width="6" stroke-linecap="round"/>
    <path d="M84 53C92 61 101 69 101 80C101 91 94 99 84 99C74 99 67 91 67 80C67 69 76 61 84 53Z" fill="#11B9D8"/>
    <text x="145" y="84" fill="#0896B5" font-family="Arial, Helvetica, sans-serif" font-size="66" font-weight="500">Fluid</text>
  </g>
</svg>