<svg width="115" height="112" viewBox="0 0 115 112" fill="none" xmlns="http://www.w3.org/2000/svg">
<path d="M56.0688 97.3429L62.1607 49.8717L108.402 52.3252L108.423 105.325L56.0688 97.3429Z" fill="#FFF176"/>
<path fill-rule="evenodd" clip-rule="evenodd" d="M96.6846 51.7035L73.0167 50.4478L75.1966 67.1232L59.6866 69.1507L56.619 93.0554L78.2174 90.232L79.6163 100.933L103.598 104.589L101.326 87.2112L108.415 86.2845L108.406 62.782L98.3054 64.1024L96.6846 51.7035ZM98.3054 64.1024L75.1966 67.1232L78.2174 90.232L101.326 87.2112L98.3054 64.1024Z" fill="#FF9DB9"/>
<path fill-rule="evenodd" clip-rule="evenodd" d="M93.5536 51.5375L62.1607 49.8718L61.6558 53.8064C67.3022 59.7237 71.5349 66.7937 76.1358 76.7286C80.5663 65.9404 86.0104 57.6616 93.5536 51.5375Z" fill="#FFFAEB"/>
<rect x="97.6248" y="6.16962" width="13.8429" height="30.5196" transform="rotate(36.2286 97.6248 6.16962)" fill="#2DE09E"/>
<path d="M111.557 42.1215C96.4929 36.8286 83.8714 21.7643 84.6857 2.6286C76.95 23.8 62.9644 35.2541 40.7143 38.8643C59.7249 49.0255 67.2424 57.5249 76.1357 76.7286C83.4922 58.8158 93.6429 47.8215 111.557 42.1215Z" fill="#FEE798"/>
<path fill-rule="evenodd" clip-rule="evenodd" d="M95.8701 31.9868C92.4921 28.4863 89.6848 24.338 87.7229 19.6844L79.5873 30.7886L90.7539 38.9699L95.8701 31.9868Z" fill="#FF4C4C"/>
<path d="M43.5645 40.0857C56.3249 40.0853 84.7885 20.868 86.0441 4.82151C86.2666 1.97783 83.6125 1.41637 82.2427 3.85016C79.3925 15.6573 92.6338 39.27 105.02 42.1216C114.947 44.4068 114.651 36.8624 105.021 38.9654C90.3499 42.1694 74.8121 59.2638 73.0972 75.5125C72.4389 81.7506 76.1361 80.3931 76.1361 76.7288C76.1361 64.6966 56.9999 34.3849 42.7438 36.5866C38.6789 37.2144 39.4932 40.0858 43.5645 40.0857Z" stroke="#002C66" stroke-width="2" stroke-linecap="round" stroke-linejoin="round"/>
<path d="M52.8412 14.183C66.4077 23.6394 66.8329 46.9338 55.302 59.2135C40.5031 74.9736 19.8973 75.2152 8.47525 64.195C-1.23706 54.8243 -4.3092 36.4825 8.47523 21.4458C19.4233 8.56907 39.9724 5.21294 52.8412 14.183Z" fill="#006FFF"/>
<path d="M57.4277 18.4674C56.3527 17.1395 55.1335 15.9296 53.7689 14.8668L51.1857 19.0896L55.4509 21.6988L57.4277 18.4674Z" fill="#00329C"/>
<path d="M12.0138 17.8856C13.6715 16.4546 15.4637 15.1909 17.3519 14.1006L16.7131 21.6509L11.7308 21.2294L12.0138 17.8856Z" fill="#00329C"/>
<path d="M0.409973 38.3552C0.689758 36.6417 1.11664 34.9154 1.70221 33.1917L7.75336 37.2896L4.94965 41.4296L0.409973 38.3552Z" fill="#00329C"/>
<path d="M3.30933 57.1969C2.3421 55.3235 1.56451 53.309 1.00671 51.1937L1.69757 50L6.02502 52.5045L3.30933 57.1969Z" fill="#00329C"/>
<path d="M63.5009 38.09C63.4719 39.1422 63.396 40.1951 63.2734 41.2432L60.3712 42.8132L54.1857 31.379L58.5834 29L63.5009 38.09Z" fill="#00329C"/>
<path d="M41.2309 12L44.5166 15.7688L34.7177 24.3117L31.4319 20.5429L41.2309 12Z" fill="#00329C"/>
<path d="M47.0859 39.1036L43.9105 42.9658L33.8688 34.7097L37.0442 30.8474L47.0859 39.1036Z" fill="#00329C"/>
<path d="M19.684 39.0225L24.3786 37.3018L19.9046 25.0959L15.21 26.8166L19.684 39.0225Z" fill="#00329C"/>
<path d="M53.5132 58.756L49.1857 56.2515L55.6976 45L60.025 47.5045L53.5132 58.756Z" fill="#00329C"/>
<path d="M62.9728 31.026C56.7159 34.889 49.3355 37.4655 40.7143 38.8643C49.6714 42.9357 55.1024 47.406 60.0871 52.2272C63.2586 45.7592 64.2505 38.0631 62.9728 31.026Z" fill="#FFBD3E"/>
<path d="M10.9926 52.7071C16.1164 39.7947 31.6106 37.5182 37.0503 46.5999C40.4118 52.212 42.0528 58.82 45.2532 64.5255C50.7975 74.4093 68.9771 75.7292 70.8431 86.9071C74.4567 108.554 48.4501 118.664 29.7211 106.857C12.7243 96.142 3.80541 70.8194 10.9926 52.7071Z" fill="#1AE69B"/>
<path d="M12.4554 85.6041C11.7413 83.9 11.1171 82.1587 10.5882 80.3951C14.1463 78.323 19.5253 75.1627 22.1857 73.5C25.3857 71.5 28.8524 67.6667 30.1857 66L39.6857 67C39.0191 67.8333 36.5857 70.4 32.1857 74C28.2236 77.2418 18.2879 82.6189 12.4554 85.6041Z" fill="#2285FF"/>
<path d="M24.9043 103.254C21.4868 100.263 18.5113 96.6529 16.0671 92.6654C20.9385 90.7934 33.5997 85.5542 39.6857 79C41.7813 76.7432 45.7332 72.1176 48.3323 68.3034C50.3148 70.1087 52.751 71.5973 55.283 72.997C53.284 78.9751 48.578 87.0776 41.6857 94.5C37.5012 99.0065 30.0139 101.872 24.9043 103.254Z" fill="#2285FF"/>
<path d="M65.3875 78.8951C68.1788 80.9956 70.2728 83.491 70.8431 86.9071C73.8628 104.996 56.1984 115.029 39.3813 110.949C45.8956 105.138 51.1848 99.0812 54.5485 95.2292L54.5512 95.2261C54.771 94.9744 54.9826 94.7322 55.1857 94.5C58.5241 90.6848 63.4715 83.8217 65.3875 78.8951Z" fill="#2285FF"/>
<path d="M58.9402 74.9682C64.5982 78.0109 69.8824 81.1527 70.8431 86.9072C71.6349 91.6506 71.0045 95.84 69.34 99.3663L56.0688 97.343L58.9402 74.9682Z" fill="#002C66"/>
<path d="M46.5439 66.4208C33.1952 74.6526 17.8551 73.1746 8.54877 64.2655C8.76191 60.2407 9.5551 56.3297 10.9926 52.7071C16.1164 39.7947 31.6106 37.5182 37.0503 46.5999C38.8136 49.5437 40.1035 52.7617 41.3934 55.9796C42.5625 58.8962 43.7316 61.8129 45.2532 64.5255C45.6286 65.1946 46.0618 65.8244 46.5439 66.4208Z" fill="#17191C"/>
<path d="M34.1857 43.418C33.5607 42.9522 32.8906 42.5573 32.1857 42.2327V64H8.56366C8.55841 64.0884 8.55347 64.177 8.54877 64.2656C9.18976 64.8792 9.85944 65.4576 10.5551 66H32.1857V71.5878C32.8508 71.504 33.5178 71.3994 34.1857 71.2737V66H46.2162C45.8638 65.5299 45.5414 65.0392 45.2532 64.5255C45.1555 64.3512 45.0591 64.176 44.9641 64H34.1857V43.418Z" fill="#006EFF"/>
<path d="M59.0536 74.0843C59.1207 74.1313 59.1877 74.1784 59.2548 74.2255C63.4349 77.1663 67.3966 80.4244 68.3884 86.3655C69.2239 91.3702 68.4937 95.5672 66.6572 98.9572L64.9339 98.6945C66.7883 95.5744 67.6087 91.5856 66.7821 86.6337C65.9434 81.6096 62.7388 78.7152 58.8189 75.9128L59.0536 74.0843Z" fill="#FFFAEB"/>
<path d="M48.6562 65.0242C48.405 64.6489 48.1655 64.2598 47.9387 63.8556C46.431 61.1679 45.6992 58.8338 44.9505 56.446L44.8822 56.2281C44.1084 53.7622 43.2935 51.2359 41.5598 48.3415C38.6321 43.4537 32.9913 41.5372 27.5002 42.4978C21.9945 43.4609 16.5675 47.3123 13.8998 54.0351C12.3219 58.0117 11.3847 62.1825 11.0614 66.385C11.5688 66.7613 12.0892 67.119 12.6217 67.4578C12.8579 63.099 13.777 58.76 15.4136 54.6358C17.8697 48.4461 22.8252 44.9689 27.7809 44.102C32.7512 43.2325 37.6507 44.9846 40.1627 49.1783C41.7905 51.896 42.559 54.264 43.3283 56.7157L43.4059 56.9631C44.1511 59.3407 44.9266 61.8148 46.5183 64.6523C46.7678 65.097 47.0317 65.5248 47.3084 65.9372C47.7603 65.6442 48.2096 65.3399 48.6562 65.0242Z" fill="white"/>
<path d="M30.1286 79.166C30.1286 85.1177 34.4396 96.3717 42.1037 95.3978C49.7677 94.4239 46.8937 83.224 45.6962 77.5428" stroke="white" stroke-width="2"/>
</svg>
